<svg width="32" height="32" viewBox="0 0 32 32" fill="none" xmlns="http://www.w3.org/2000/svg">
  <rect width="32" height="32" rx="8" fill="url(#gradient)"/>
  <path d="M9 11C9 10.4477 9.44772 10 10 10H22C22.5523 10 23 10.4477 23 11V21C23 21.5523 22.5523 22 22 22H10C9.44772 22 9 21.5523 9 21V11Z" fill="white"/>
  <path d="M9.5 11.5L16 16L22.5 11.5" stroke="#6366F1" stroke-width="1.5" stroke-linecap="round" stroke-linejoin="round"/>
  <path d="M9 11C9 10.4477 9.44772 10 10 10H22C22.5523 10 23 10.4477 23 11V21C23 21.5523 22.5523 22 22 22H10C9.44772 22 9 21.5523 9 21V11Z" stroke="#6366F1" stroke-width="1.5"/>
  <defs>
    <linearGradient id="gradient" x1="0" y1="0" x2="32" y2="32" gradientUnits="userSpaceOnUse">
      <stop stop-color="#6366F1"/>
      <stop offset="1" stop-color="#8B5CF6"/>
    </linearGradient>
  </defs>
</svg>
